<?xml version="1.0" standalone="no"?>
<!DOCTYPE svg PUBLIC "-//W3C//DTD SVG 20010904//EN"
 "http://www.w3.org/TR/2001/REC-SVG-20010904/DTD/svg10.dtd">
<svg version="1.0" xmlns="http://www.w3.org/2000/svg"
 width="300.000000pt" height="300.000000pt" viewBox="0 0 300.000000 300.000000"
 preserveAspectRatio="xMidYMid meet">
<metadata>
Created by potrace 1.10, written by Peter Selinger 2001-2011
</metadata>
<g transform="translate(0.000000,300.000000) scale(0.100000,-0.100000)"
fill="#000000" stroke="none">
<path d="M0 1500 l0 -1500 1500 0 1500 0 0 1500 0 1500 -1500 0 -1500 0 0
-1500z m2228 1250 c62 -38 62 -37 62 -590 l0 -500 -200 0 -200 0 2 -515 3
-515 -743 0 c-804 0 -780 -2 -832 55 l-25 27 -3 979 c-3 1083 -6 1018 61 1059
31 19 57 20 937 20 890 0 906 0 938 -20z m254 -1112 c132 -40 212 -149 236
-323 9 -63 9 -277 0 -330 -30 -189 -128 -302 -279 -321 -30 -4 -51 -3 -46 2 8
8 13 9 80 17 21 3 48 13 59 24 11 10 23 17 27 16 11 -4 81 68 75 78 -3 5 -1 9
4 9 16 0 54 99 68 180 11 66 13 270 2 270 -5 0 -7 4 -4 9 9 14 -14 131 -32
165 -9 17 -16 34 -17 37 0 4 -15 27 -33 53 -31 43 -101 94 -139 101 -10 2 -18
4 -18 6 0 3 -41 10 -98 15 -32 4 -54 10 -51 15 8 13 83 3 166 -23z m-1 -59
c127 -58 183 -188 183 -424 0 -193 -30 -301 -101 -370 -50 -48 -108 -65 -225
-65 l-99 0 3 -290 3 -290 -142 0 -143 0 0 731 0 731 243 -4 c195 -3 249 -6
278 -19z m-133 -917 l-38 -3 -2 -291 -3 -290 -202 -3 -203 -3 -1 52 c-3 111 3
491 7 495 2 2 4 -116 4 -262 l0 -267 190 0 190 0 1 193 c1 105 1 230 -1 278
-1 61 2 88 12 96 16 13 59 21 73 14 6 -4 -7 -7 -27 -9z"/>
<path d="M383 2743 c-28 -5 -66 -52 -58 -70 2 -8 0 -11 -5 -8 -6 4 -9 -119 -9
-338 0 -190 -3 -358 -6 -373 l-5 -29 14 31 c20 42 39 56 82 57 l37 2 38 110
c58 166 68 183 113 210 71 41 154 55 342 55 l172 0 11 133 c7 72 13 141 14
152 2 20 9 20 297 20 l295 0 2 -30 c2 -35 16 -183 43 -460 10 -110 31 -321 45
-470 32 -350 44 -470 51 -522 l5 -43 -194 0 -195 0 -6 78 c-11 124 -13 132
-45 132 -26 0 -29 -4 -35 -46 -3 -26 -6 -73 -6 -105 l0 -59 -200 0 c-110 0
-200 1 -200 3 0 1 7 70 15 152 8 83 15 158 15 168 0 16 -16 17 -195 17 l-195
0 0 -55 c0 -69 -10 -75 -129 -75 -69 0 -93 4 -106 16 -14 14 -15 45 -13 238 2
121 7 229 12 239 7 15 3 17 -33 17 l-40 0 -1 -546 c0 -424 3 -550 12 -562 10
-13 10 -14 1 -8 -17 10 -16 -9 2 -43 8 -16 12 -31 9 -34 -3 -3 5 -3 18 0 18 4
20 2 8 -6 -37 -26 49 -31 568 -30 626 0 518 1 750 -6 l192 -6 2 263 c2 332 2
297 -1 538 -3 262 -21 242 216 238 142 -2 174 0 178 11 11 28 4 954 -7 975 -6
11 -21 31 -34 45 l-24 26 -898 1 c-493 1 -907 -1 -919 -3z"/>
<path d="M1161 2671 c-7 -5 -11 -16 -9 -26 3 -16 5 -15 21 3 19 21 11 37 -12
23z"/>
<path d="M1660 2667 c0 -8 7 -18 16 -21 11 -4 14 -1 12 11 -4 21 -28 30 -28
10z"/>
<path d="M1328 2663 c7 -3 16 -2 19 1 4 3 -2 6 -13 5 -11 0 -14 -3 -6 -6z"/>
<path d="M1508 2663 c7 -3 16 -2 19 1 4 3 -2 6 -13 5 -11 0 -14 -3 -6 -6z"/>
<path d="M1180 2628 c0 -25 -130 -1364 -134 -1380 -4 -17 8 -18 134 -18 l137
0 7 53 c3 28 6 80 6 115 l0 62 89 0 89 0 7 -115 7 -115 139 0 c106 0 137 3
134 13 -4 10 -135 1356 -135 1386 0 8 -74 11 -240 11 -181 0 -240 -3 -240 -12z
m250 -275 c0 -46 46 -603 54 -650 3 -22 0 -23 -60 -23 -54 0 -64 3 -64 18 0 9
11 170 25 357 14 187 25 341 25 343 0 1 5 2 10 2 6 0 10 -21 10 -47z"/>
<path d="M1409 2024 c0 -27 -2 -56 -3 -64 -2 -8 -6 -68 -10 -132 l-7 -118 30
0 31 0 -5 88 c-12 206 -34 347 -36 226z"/>
<path d="M1692 2590 c0 -14 2 -19 5 -12 2 6 2 18 0 25 -3 6 -5 1 -5 -13z"/>
<path d="M1133 2515 c0 -27 2 -38 4 -22 2 15 2 37 0 50 -2 12 -4 0 -4 -28z"/>
<path d="M1712 2380 c0 -14 2 -19 5 -12 2 6 2 18 0 25 -3 6 -5 1 -5 -13z"/>
<path d="M1103 2379 c-7 -7 -73 -12 -185 -14 -95 -1 -193 -6 -218 -10 -73 -12
-171 -80 -154 -107 3 -4 -2 -15 -10 -24 -9 -8 -16 -24 -16 -34 0 -10 -9 -35
-19 -57 -11 -21 -27 -59 -37 -86 -15 -43 -20 -48 -56 -54 -22 -3 -48 -15 -59
-26 -21 -23 -24 -37 -8 -37 5 0 8 -4 4 -9 -3 -5 7 -11 22 -13 l28 -3 2 -239
c1 -131 4 -245 7 -252 4 -10 25 -12 88 -8 46 3 89 7 96 9 7 3 12 22 12 48 0
24 5 48 12 55 8 8 67 12 201 12 197 0 217 -4 217 -45 0 -9 5 -13 10 -10 6 4 8
9 6 13 -2 4 3 72 10 152 8 80 17 170 19 200 3 30 7 70 10 89 3 24 -1 38 -12
46 -16 12 -14 64 13 284 l6 43 -209 -5 c-114 -2 -217 -8 -228 -11 -22 -8 -112
-200 -122 -259 l-5 -34 128 -6 c71 -4 191 -7 267 -7 84 0 137 -4 137 -10 0 -8
-228 -17 -272 -11 -3 0 -62 3 -130 7 -126 6 -148 13 -148 45 0 21 47 150 84
231 27 60 29 61 126 76 49 8 367 8 375 0 3 -3 10 -28 15 -55 l8 -48 1 50 c1
28 4 67 7 88 7 37 -2 47 -23 26z m-542 -538 c22 -11 53 -22 68 -26 64 -14 103
-99 59 -129 -28 -20 -51 -20 -90 0 -40 20 -107 27 -125 13 -9 -9 -13 -8 -13 0
0 6 -7 11 -15 11 -38 0 -47 89 -12 126 27 29 73 31 128 5z"/>
<path d="M465 1832 c-25 -5 -35 -20 -35 -54 0 -53 6 -58 75 -51 55 5 67 3 91
-16 31 -25 53 -26 79 -7 16 12 18 19 10 41 -7 19 -26 33 -70 51 -72 29 -123
42 -150 36z"/>
<path d="M1730 2171 c0 -11 4 -22 9 -25 4 -3 6 6 3 19 -5 30 -12 33 -12 6z"/>
<path d="M1091 2104 c0 -11 3 -14 6 -6 3 7 2 16 -1 19 -3 4 -6 -2 -5 -13z"/>
<path d="M1751 2004 c0 -11 3 -14 6 -6 3 7 2 16 -1 19 -3 4 -6 -2 -5 -13z"/>
<path d="M1762 1830 c0 -14 2 -19 5 -12 2 6 2 18 0 25 -3 6 -5 1 -5 -13z"/>
<path d="M1367 1423 c-4 -3 -7 -15 -7 -25 0 -16 3 -17 23 -6 36 20 49 18 74
-8 l23 -25 0 34 0 34 -53 2 c-30 0 -57 -2 -60 -6z"/>
<path d="M1490 1220 c0 -10 10 -20 22 -23 30 -8 31 -5 2 20 -22 20 -24 20 -24
3z"/>
<path d="M1010 1211 c0 -15 7 -19 38 -19 30 0 33 2 16 8 -12 5 -25 13 -29 19
-10 17 -25 13 -25 -8z"/>
<path d="M1326 1211 c-19 -21 -12 -28 13 -12 7 5 12 14 9 21 -2 7 -10 4 -22
-9z"/>
<path d="M1803 1211 c-11 -17 -10 -20 7 -18 12 1 20 9 20 19 0 24 -12 23 -27
-1z"/>
<path d="M1990 870 l0 -700 110 0 110 0 0 256 c0 211 3 262 16 289 l15 33 112
3 c100 4 117 7 158 31 42 25 85 78 95 118 2 8 8 33 13 55 16 63 14 341 -4 406
-23 91 -85 179 -124 179 -9 0 -28 6 -43 14 -20 10 -80 14 -242 15 l-216 2 0
-701z m351 472 c43 -17 59 -67 59 -180 0 -99 -13 -162 -33 -162 -6 0 -7 -3 -4
-7 12 -11 -32 -34 -71 -38 -68 -6 -72 4 -72 203 0 144 3 178 15 193 17 17 46
15 106 -9z"/>
<path d="M2240 1161 l0 -181 34 0 c70 0 106 59 106 175 -1 124 -24 168 -97
180 l-43 7 0 -181z m87 12 c-3 -10 -5 -2 -5 17 0 19 2 27 5 18 2 -10 2 -26 0
-35z"/>
</g>
</svg>
