<svg version="1.1" id="Layer_1" xmlns="http://www.w3.org/2000/svg" xmlns:xlink="http://www.w3.org/1999/xlink" x="0px" y="0px"
	 width="100%" viewBox="0 0 1204 1199" enable-background="new 0 0 1204 1199" xml:space="preserve">
<path fill="#000000" opacity="1.000000" stroke="none" 
	d="
M1203.000000,1200.000000 
	C803.300598,1200.000000 403.601196,1200.000000 3.450905,1199.549072 
	C3.000000,799.732117 3.000000,400.366058 3.000000,1.000000 
	C402.699371,1.000000 802.398743,1.000000 1202.549072,1.450905 
	C1203.000000,401.267883 1203.000000,800.633911 1203.000000,1200.000000 
M678.835022,898.358093 
	C678.888000,900.187134 678.987061,902.016113 678.987244,903.845154 
	C678.995117,974.328308 678.993896,1044.811523 678.993896,1115.294678 
	C678.993896,1117.077148 678.993896,1118.859619 678.993896,1120.776855 
	C734.180237,1120.776855 788.906433,1120.776855 844.046143,1120.776855 
	C844.046143,1043.826660 844.046143,967.104248 844.046143,890.498413 
	C854.341980,889.987122 864.244507,889.791260 874.088623,888.929260 
	C885.615479,887.919861 897.274536,887.196411 908.551575,884.812683 
	C932.138184,879.826843 952.944580,869.248901 969.417786,851.102173 
	C981.574829,837.710022 990.170593,822.094666 995.796021,805.162964 
	C1000.555786,790.836975 1003.762695,775.948242 1006.939331,761.154419 
	C1011.392090,740.417236 1012.835693,719.301270 1012.939514,698.126587 
	C1012.990601,687.708435 1012.583313,677.271667 1011.940796,666.870728 
	C1011.233948,655.427979 1010.180908,643.999573 1008.987366,632.595398 
	C1007.112854,614.683594 1002.991028,597.274231 997.027466,580.264771 
	C989.122437,557.717957 977.798828,537.240051 960.185303,520.864624 
	C950.575256,511.930054 939.499329,504.988678 927.354797,499.591766 
	C910.527771,492.114014 892.843384,488.637848 874.744324,487.115356 
	C862.548523,486.089417 850.255615,486.217987 838.001404,484.914062 
	C838.000977,354.209259 838.000549,223.504471 838.000061,92.799683 
	C838.000061,90.469330 838.381836,88.063873 837.940918,85.820137 
	C832.925049,60.296577 814.158020,42.096390 786.603760,39.128139 
	C785.607788,39.083996 784.611755,39.001186 783.615784,39.001167 
	C552.922668,38.996750 322.229553,38.996452 91.536423,39.035637 
	C90.022827,39.035896 88.509331,39.585247 86.113228,39.969978 
	C68.473099,40.868217 54.896118,48.876842 44.826145,63.273865 
	C39.388710,71.047768 36.473053,79.681274 34.983345,89.891075 
	C34.989037,339.447998 34.994198,589.004883 35.006268,838.561829 
	C35.006420,841.722473 35.094490,844.883179 35.368587,848.808960 
	C35.715698,851.214905 35.944027,853.645020 36.429432,856.022766 
	C39.325863,870.210754 46.937489,881.589844 59.004543,889.154602 
	C65.583153,893.278748 73.644951,895.036865 81.962700,897.984558 
	C279.355438,897.989685 476.748138,897.995056 674.140869,897.992981 
	C675.470215,897.992981 676.799561,897.888489 678.835022,898.358093 
z"/>
<path fill="#030A0F" opacity="1.000000" stroke="none" 
	d="
M2.500000,1.000000 
	C3.000000,400.366058 3.000000,799.732117 3.000006,1199.549072 
	C2.333346,1199.666626 1.216318,1199.451904 1.090964,1198.976074 
	C0.803548,1197.885132 1.000000,1196.666626 1.000000,1195.500000 
	C1.000000,798.833313 0.998907,402.166656 1.041211,5.500004 
	C1.041371,3.999969 1.666667,2.500000 2.500000,1.000000 
z"/>
<path fill="#030A0F" opacity="1.000000" stroke="none" 
	d="
M1203.500000,1200.000000 
	C1203.000000,800.633911 1203.000000,401.267883 1203.000000,1.450908 
	C1203.666626,1.333339 1204.783569,1.548070 1204.908936,2.023991 
	C1205.196289,3.114945 1205.000000,4.333333 1205.000000,5.500000 
	C1205.000000,402.166656 1205.001099,798.833313 1204.958862,1195.500000 
	C1204.958618,1197.000000 1204.333374,1198.500000 1203.500000,1200.000000 
z"/>
<path fill="#0049B1" opacity="1.000000" stroke="none" 
	d="
M35.142071,88.957321 
	C36.473053,79.681274 39.388710,71.047768 44.826145,63.273865 
	C54.896118,48.876842 68.473099,40.868217 87.018646,39.984924 
	C317.623291,39.999870 547.322510,40.000374 777.021729,39.994892 
	C780.350281,39.994812 783.678894,39.919991 787.007446,39.880054 
	C814.158020,42.096390 832.925049,60.296577 837.940918,85.820137 
	C838.381836,88.063873 838.000061,90.469330 838.000061,92.799683 
	C838.000549,223.504471 838.000977,354.209259 837.540283,485.440063 
	C784.200500,485.966095 731.321716,485.966095 678.169434,485.966095 
	C678.169434,488.939056 678.169373,491.088684 678.169373,493.238281 
	C678.169373,625.663879 678.170532,758.089417 678.159668,890.515015 
	C678.159546,892.673889 678.013794,894.832703 677.472412,896.994202 
	C480.609650,896.997925 284.210388,896.996094 87.811119,897.035767 
	C85.553291,897.036194 83.295578,897.574707 81.037819,897.862061 
	C73.644951,895.036865 65.583153,893.278748 59.004543,889.154602 
	C46.937489,881.589844 39.325863,870.210754 36.429432,856.022766 
	C35.944027,853.645020 35.715698,851.214905 35.565025,848.142212 
	C35.840736,844.321899 35.989159,841.168335 35.989429,838.014832 
	C36.010639,589.725769 36.021667,341.436676 35.994007,93.147591 
	C35.993851,91.750801 35.438274,90.354073 35.142071,88.957321 
M50.111057,359.734619 
	C48.102394,365.381714 45.968826,370.988068 44.112350,376.684753 
	C40.751205,386.998657 45.687218,393.785614 56.511349,393.875977 
	C62.635399,393.927094 68.760223,393.885193 75.571899,393.885193 
	C74.684608,396.775543 73.836914,398.915771 73.380699,401.136414 
	C71.849510,408.589752 69.259514,416.063141 69.205879,423.544159 
	C68.835510,475.203461 68.966476,526.866699 69.035606,578.528503 
	C69.048660,588.283081 76.787399,595.925110 86.570152,595.968933 
	C108.401062,596.066650 130.232712,596.002869 152.064056,595.997192 
	C157.381592,595.995789 161.654297,593.771912 165.260910,589.944275 
	C168.819717,586.167358 169.911865,581.630127 169.895126,576.631592 
	C169.861313,566.532410 169.885040,556.433044 169.885040,546.263916 
	C222.005920,546.263916 273.397339,546.263916 325.411163,546.263916 
	C320.953278,592.300903 316.536835,637.909973 312.110596,683.619995 
	C365.518280,683.619995 418.398438,683.619995 471.516632,683.619995 
	C473.578613,654.285583 475.615204,625.312195 477.651550,596.342163 
	C485.829620,596.342163 493.245239,596.342163 500.904907,596.342163 
	C503.448944,625.618530 505.965729,654.581360 508.488159,683.608887 
	C560.793091,683.608887 612.659912,683.608887 664.758301,683.608887 
	C645.338013,479.624603 625.956970,276.052734 606.578247,72.504440 
	C527.776917,72.504440 449.557068,72.504440 371.209625,72.504440 
	C367.274445,113.063210 363.375702,153.246414 359.482391,193.373627 
	C342.151154,192.665298 325.527252,191.308411 308.917694,191.465302 
	C283.782867,191.702667 258.648560,192.782700 233.531830,193.903137 
	C212.662186,194.834122 192.157364,197.902832 172.596008,205.874344 
	C160.956528,210.617569 149.617020,215.749924 140.568893,224.771423 
	C132.243546,233.072266 128.990051,244.125351 125.103775,254.695938 
	C114.882156,282.498566 104.996704,310.425079 95.061417,338.332184 
	C93.970337,341.396881 92.913048,343.605713 88.913048,343.208374 
	C84.622437,342.782227 80.256508,343.084229 75.923820,343.117737 
	C64.171776,343.208679 55.536575,348.314941 50.111057,359.734619 
z"/>
<path fill="#D7D7D8" opacity="1.000000" stroke="none" 
	d="
M677.935913,896.991577 
	C678.013794,894.832703 678.159546,892.673889 678.159668,890.515015 
	C678.170532,758.089417 678.169373,625.663879 678.169373,493.238281 
	C678.169373,491.088684 678.169434,488.939056 678.169434,485.966095 
	C731.321716,485.966095 784.200500,485.966095 837.542725,485.898071 
	C850.255615,486.217987 862.548523,486.089417 874.744324,487.115356 
	C892.843384,488.637848 910.527771,492.114014 927.354797,499.591766 
	C939.499329,504.988678 950.575256,511.930054 960.185303,520.864624 
	C977.798828,537.240051 989.122437,557.717957 997.027466,580.264771 
	C1002.991028,597.274231 1007.112854,614.683594 1008.987366,632.595398 
	C1010.180908,643.999573 1011.233948,655.427979 1011.940796,666.870728 
	C1012.583313,677.271667 1012.990601,687.708435 1012.939514,698.126587 
	C1012.835693,719.301270 1011.392090,740.417236 1006.939331,761.154419 
	C1003.762695,775.948242 1000.555786,790.836975 995.796021,805.162964 
	C990.170593,822.094666 981.574829,837.710022 969.417786,851.102173 
	C952.944580,869.248901 932.138184,879.826843 908.551575,884.812683 
	C897.274536,887.196411 885.615479,887.919861 874.088623,888.929260 
	C864.244507,889.791260 854.341980,889.987122 844.046143,890.498413 
	C844.046143,967.104248 844.046143,1043.826660 844.046143,1120.776855 
	C788.906433,1120.776855 734.180237,1120.776855 678.993896,1120.776855 
	C678.993896,1118.859619 678.993896,1117.077148 678.993896,1115.294678 
	C678.993896,1044.811523 678.995117,974.328308 678.987244,903.845154 
	C678.987061,902.016113 678.888000,900.187134 678.464355,897.878052 
	C678.093750,897.398071 677.935913,896.991577 677.935913,896.991577 
M705.499756,511.543427 
	C704.948853,513.363953 703.916260,515.184265 703.915588,517.004944 
	C703.842590,707.968140 703.847168,898.931335 703.847168,1089.894531 
	C703.847168,1091.674072 703.847168,1093.453735 703.847168,1095.127441 
	C742.349731,1095.127441 780.248413,1095.127441 818.685059,1095.127441 
	C818.685059,1018.062134 818.685059,941.353577 818.685059,864.485474 
	C833.717285,864.485474 848.210022,864.578796 862.700928,864.460144 
	C878.372498,864.331909 893.988770,863.481140 909.134277,858.933105 
	C932.946228,851.782532 951.631653,838.198975 963.601318,815.923950 
	C977.761719,789.572388 983.290039,760.955566 985.967773,731.628479 
	C988.441467,704.535278 988.560913,677.405151 986.112488,650.272034 
	C983.612366,622.565735 978.247864,595.593567 965.754822,570.488220 
	C954.197754,547.264038 937.018799,530.044067 912.294678,520.749817 
	C893.588135,513.717651 874.211731,511.560699 854.471375,511.535492 
	C805.147583,511.472473 755.823730,511.517181 705.499756,511.543427 
z"/>
<path fill="#4491D0" opacity="1.000000" stroke="none" 
	d="
M35.062706,89.424194 
	C35.438274,90.354073 35.993851,91.750801 35.994007,93.147591 
	C36.021667,341.436676 36.010639,589.725769 35.989429,838.014832 
	C35.989159,841.168335 35.840736,844.321899 35.451492,847.759644 
	C35.094490,844.883179 35.006420,841.722473 35.006268,838.561829 
	C34.994198,589.004883 34.989037,339.447998 35.062706,89.424194 
z"/>
<path fill="#CBDFF1" opacity="1.000000" stroke="none" 
	d="
M786.805603,39.504097 
	C783.678894,39.919991 780.350281,39.994812 777.021729,39.994892 
	C547.322510,40.000374 317.623291,39.999870 87.459930,39.939034 
	C88.509331,39.585247 90.022827,39.035896 91.536423,39.035637 
	C322.229553,38.996452 552.922668,38.996750 783.615784,39.001167 
	C784.611755,39.001186 785.607788,39.083996 786.805603,39.504097 
z"/>
<path fill="#006EC1" opacity="1.000000" stroke="none" 
	d="
M677.472412,896.994202 
	C677.935913,896.991577 678.093750,897.398071 678.111328,897.615417 
	C676.799561,897.888489 675.470215,897.992981 674.140869,897.992981 
	C476.748138,897.995056 279.355438,897.989685 81.500259,897.923340 
	C83.295578,897.574707 85.553291,897.036194 87.811119,897.035767 
	C284.210388,896.996094 480.609650,896.997925 677.472412,896.994202 
z"/>
<path fill="#010101" opacity="1.000000" stroke="none" 
	d="
M50.265533,359.389221 
	C55.536575,348.314941 64.171776,343.208679 75.923820,343.117737 
	C80.256508,343.084229 84.622437,342.782227 88.913048,343.208374 
	C92.913048,343.605713 93.970337,341.396881 95.061417,338.332184 
	C104.996704,310.425079 114.882156,282.498566 125.103775,254.695938 
	C128.990051,244.125351 132.243546,233.072266 140.568893,224.771423 
	C149.617020,215.749924 160.956528,210.617569 172.596008,205.874344 
	C192.157364,197.902832 212.662186,194.834122 233.531830,193.903137 
	C258.648560,192.782700 283.782867,191.702667 308.917694,191.465302 
	C325.527252,191.308411 342.151154,192.665298 359.482391,193.373627 
	C363.375702,153.246414 367.274445,113.063210 371.209625,72.504440 
	C449.557068,72.504440 527.776917,72.504440 606.578247,72.504440 
	C625.956970,276.052734 645.338013,479.624603 664.758301,683.608887 
	C612.659912,683.608887 560.793091,683.608887 508.488159,683.608887 
	C505.965729,654.581360 503.448944,625.618530 500.904907,596.342163 
	C493.245239,596.342163 485.829620,596.342163 477.651550,596.342163 
	C475.615204,625.312195 473.578613,654.285583 471.516632,683.619995 
	C418.398438,683.619995 365.518280,683.619995 312.110596,683.619995 
	C316.536835,637.909973 320.953278,592.300903 325.411163,546.263916 
	C273.397339,546.263916 222.005920,546.263916 169.885040,546.263916 
	C169.885040,556.433044 169.861313,566.532410 169.895126,576.631592 
	C169.911865,581.630127 168.819717,586.167358 165.260910,589.944275 
	C161.654297,593.771912 157.381592,595.995789 152.064056,595.997192 
	C130.232712,596.002869 108.401062,596.066650 86.570152,595.968933 
	C76.787399,595.925110 69.048660,588.283081 69.035606,578.528503 
	C68.966476,526.866699 68.835510,475.203461 69.205879,423.544159 
	C69.259514,416.063141 71.849510,408.589752 73.380699,401.136414 
	C73.836914,398.915771 74.684608,396.775543 75.571899,393.885193 
	C68.760223,393.885193 62.635399,393.927094 56.511349,393.875977 
	C45.687218,393.785614 40.751205,386.998657 44.112350,376.684753 
	C45.968826,370.988068 48.102394,365.381714 50.265533,359.389221 
M371.427338,324.965973 
	C360.724274,436.229004 350.021240,547.492065 339.298553,658.959229 
	C375.881592,658.959229 411.991455,658.959229 448.490112,658.959229 
	C450.673584,628.663147 452.845612,598.526245 455.018555,568.376221 
	C478.047241,568.376221 500.479187,568.376221 523.242554,568.376221 
	C525.844116,598.694397 528.429138,628.820862 530.996094,658.736145 
	C566.922791,658.736145 602.275391,658.736145 637.679565,658.736145 
	C628.736694,564.863220 619.854858,471.405182 610.924255,377.951782 
	C601.978149,284.335846 592.983521,190.724579 584.010254,97.113434 
	C520.265930,97.113434 457.020477,97.113434 393.463776,97.113434 
	C386.151093,172.916336 378.860840,248.486923 371.427338,324.965973 
M192.081238,234.442001 
	C187.618027,235.734009 182.990189,236.643631 178.755569,238.466599 
	C176.354263,239.500336 173.762131,241.641693 172.685242,243.950790 
	C165.372864,259.630035 157.840256,275.251709 151.542862,291.347443 
	C144.108505,310.349182 137.848541,329.810394 131.071716,349.094391 
	C147.984894,354.642700 328.883850,359.346069 343.835236,355.401215 
	C347.838043,314.021240 351.852234,272.523285 355.858002,231.112289 
	C340.599701,227.127274 236.858856,229.207703 192.081238,234.442001 
M94.647346,439.503174 
	C94.647530,442.499878 94.626480,445.496735 94.652092,448.493225 
	C94.716522,456.029999 98.696854,459.768433 106.310982,459.147552 
	C110.609901,458.796997 114.879196,458.061707 119.154785,457.450409 
	C134.752533,455.220520 150.042862,454.403717 162.681885,466.482239 
	C163.511124,467.274750 164.605347,467.789795 165.575943,468.434479 
	C172.084793,472.757538 186.907974,471.700928 192.024445,465.866882 
	C194.242828,463.337311 195.859863,459.461945 196.023361,456.113525 
	C196.400879,448.382202 189.398926,439.326843 181.824432,436.789734 
	C175.371826,434.628418 168.698944,433.095276 162.321655,430.746277 
	C154.835953,427.988953 147.633545,424.470276 140.183014,421.607819 
	C130.044922,417.712860 119.742371,414.672577 108.591827,415.818390 
	C100.546745,416.645111 95.731216,420.958099 95.012245,429.035339 
	C94.732307,432.180328 94.759483,435.352661 94.647346,439.503174 
z"/>
<path fill="#000000" opacity="1.000000" stroke="none" 
	d="
M705.999817,511.531067 
	C755.823730,511.517181 805.147583,511.472473 854.471375,511.535492 
	C874.211731,511.560699 893.588135,513.717651 912.294678,520.749817 
	C937.018799,530.044067 954.197754,547.264038 965.754822,570.488220 
	C978.247864,595.593567 983.612366,622.565735 986.112488,650.272034 
	C988.560913,677.405151 988.441467,704.535278 985.967773,731.628479 
	C983.290039,760.955566 977.761719,789.572388 963.601318,815.923950 
	C951.631653,838.198975 932.946228,851.782532 909.134277,858.933105 
	C893.988770,863.481140 878.372498,864.331909 862.700928,864.460144 
	C848.210022,864.578796 833.717285,864.485474 818.685059,864.485474 
	C818.685059,941.353577 818.685059,1018.062134 818.685059,1095.127441 
	C780.248413,1095.127441 742.349731,1095.127441 703.847168,1095.127441 
	C703.847168,1093.453735 703.847168,1091.674072 703.847168,1089.894531 
	C703.847168,898.931335 703.842590,707.968140 703.915588,517.004944 
	C703.916260,515.184265 704.948853,513.363953 705.999817,511.531067 
M865.061462,740.521790 
	C866.077881,737.893433 867.398315,735.339539 868.062744,732.625061 
	C873.353149,711.010681 872.648254,689.027100 871.376892,667.103027 
	C870.899841,658.875671 869.047424,650.668762 867.204102,642.593506 
	C864.222168,629.529419 856.179077,620.992859 842.700806,618.946167 
	C834.898865,617.761414 826.894409,617.910034 818.808228,617.448730 
	C818.808228,665.092896 818.808228,711.934814 818.808228,759.041199 
	C836.614990,758.805420 854.230713,759.179077 865.061462,740.521790 
z"/>
<path fill="#DADADA" opacity="1.000000" stroke="none" 
	d="
M371.498962,324.511749 
	C378.860840,248.486923 386.151093,172.916336 393.463776,97.113434 
	C457.020477,97.113434 520.265930,97.113434 584.010254,97.113434 
	C592.983521,190.724579 601.978149,284.335846 610.924255,377.951782 
	C619.854858,471.405182 628.736694,564.863220 637.679565,658.736145 
	C602.275391,658.736145 566.922791,658.736145 530.996094,658.736145 
	C528.429138,628.820862 525.844116,598.694397 523.242554,568.376221 
	C500.479187,568.376221 478.047241,568.376221 455.018555,568.376221 
	C452.845612,598.526245 450.673584,628.663147 448.490112,658.959229 
	C411.991455,658.959229 375.881592,658.959229 339.298553,658.959229 
	C350.021240,547.492065 360.724274,436.229004 371.498962,324.511749 
M492.720154,225.709030 
	C491.711823,214.672760 490.703491,203.636475 489.703674,192.693176 
	C487.697540,192.693176 486.247070,192.693176 484.484131,192.693176 
	C477.493530,287.954498 470.516571,383.029907 463.534637,478.173462 
	C480.828979,478.173462 497.696075,478.173462 514.759399,478.173462 
	C513.179260,460.585724 511.589691,443.363678 510.093414,426.133545 
	C507.616943,397.616455 505.225098,369.092072 502.752960,340.574585 
	C499.460236,302.591644 496.124878,264.612366 492.720154,225.709030 
z"/>
<path fill="#0049B0" opacity="1.000000" stroke="none" 
	d="
M192.497131,234.336670 
	C236.858856,229.207703 340.599701,227.127274 355.858002,231.112289 
	C351.852234,272.523285 347.838043,314.021240 343.835236,355.401215 
	C328.883850,359.346069 147.984894,354.642700 131.071716,349.094391 
	C137.848541,329.810394 144.108505,310.349182 151.542862,291.347443 
	C157.840256,275.251709 165.372864,259.630035 172.685242,243.950790 
	C173.762131,241.641693 176.354263,239.500336 178.755569,238.466599 
	C182.990189,236.643631 187.618027,235.734009 192.497131,234.336670 
z"/>
<path fill="#0048B0" opacity="1.000000" stroke="none" 
	d="
M94.647049,439.007874 
	C94.759483,435.352661 94.732307,432.180328 95.012245,429.035339 
	C95.731216,420.958099 100.546745,416.645111 108.591827,415.818390 
	C119.742371,414.672577 130.044922,417.712860 140.183014,421.607819 
	C147.633545,424.470276 154.835953,427.988953 162.321655,430.746277 
	C168.698944,433.095276 175.371826,434.628418 181.824432,436.789734 
	C189.398926,439.326843 196.400879,448.382202 196.023361,456.113525 
	C195.859863,459.461945 194.242828,463.337311 192.024445,465.866882 
	C186.907974,471.700928 172.084793,472.757538 165.575943,468.434479 
	C164.605347,467.789795 163.511124,467.274750 162.681885,466.482239 
	C150.042862,454.403717 134.752533,455.220520 119.154785,457.450409 
	C114.879196,458.061707 110.609901,458.796997 106.310982,459.147552 
	C98.696854,459.768433 94.716522,456.029999 94.652092,448.493225 
	C94.626480,445.496735 94.647530,442.499878 94.647049,439.007874 
z"/>
<path fill="#D7D7D7" opacity="1.000000" stroke="none" 
	d="
M864.925537,740.865967 
	C854.230713,759.179077 836.614990,758.805420 818.808228,759.041199 
	C818.808228,711.934814 818.808228,665.092896 818.808228,617.448730 
	C826.894409,617.910034 834.898865,617.761414 842.700806,618.946167 
	C856.179077,620.992859 864.222168,629.529419 867.204102,642.593506 
	C869.047424,650.668762 870.899841,658.875671 871.376892,667.103027 
	C872.648254,689.027100 873.353149,711.010681 868.062744,732.625061 
	C867.398315,735.339539 866.077881,737.893433 864.925537,740.865967 
M845.575012,662.185730 
	C845.250366,660.272522 844.925659,658.359314 844.601013,656.446106 
	C844.515564,656.479614 844.430115,656.513062 844.344666,656.546509 
	C844.344666,678.192627 844.344666,699.838745 844.344666,722.742676 
	C848.061584,702.057556 846.900330,682.551086 845.575012,662.185730 
z"/>
<path fill="#030303" opacity="1.000000" stroke="none" 
	d="
M492.763977,226.170288 
	C496.124878,264.612366 499.460236,302.591644 502.752960,340.574585 
	C505.225098,369.092072 507.616943,397.616455 510.093414,426.133545 
	C511.589691,443.363678 513.179260,460.585724 514.759399,478.173462 
	C497.696075,478.173462 480.828979,478.173462 463.534637,478.173462 
	C470.516571,383.029907 477.493530,287.954498 484.484131,192.693176 
	C486.247070,192.693176 487.697540,192.693176 489.703674,192.693176 
	C490.703491,203.636475 491.711823,214.672760 492.763977,226.170288 
z"/>
<path fill="#FCFCFC" opacity="1.000000" stroke="none" 
	d="
M845.689575,662.615723 
	C846.900330,682.551086 848.061584,702.057556 844.344666,722.742676 
	C844.344666,699.838745 844.344666,678.192627 844.344666,656.546509 
	C844.430115,656.513062 844.515564,656.479614 844.601013,656.446106 
	C844.925659,658.359314 845.250366,660.272522 845.689575,662.615723 
z"/>
</svg>