<?xml version="1.0" standalone="no"?>
<!DOCTYPE svg PUBLIC "-//W3C//DTD SVG 20010904//EN"
 "http://www.w3.org/TR/2001/REC-SVG-20010904/DTD/svg10.dtd">
<svg version="1.0" xmlns="http://www.w3.org/2000/svg"
 width="1204.000000pt" height="1199.000000pt" viewBox="0 0 1204.000000 1199.000000"
 preserveAspectRatio="xMidYMid meet">

<g transform="translate(0.000000,1199.000000) scale(0.100000,-0.100000)"
fill="#000000" stroke="none">
<path d="M0 5995 c0 -3990 3 -5995 10 -5995 7 0 10 2005 10 5995 0 3990 -3
5995 -10 5995 -7 0 -10 -2005 -10 -5995z"/>
<path d="M12020 5995 c0 -3990 3 -5995 10 -5995 7 0 10 2005 10 5995 0 3990
-3 5995 -10 5995 -7 0 -10 -2005 -10 -5995z"/>
<path d="M760 11584 c-190 -50 -337 -193 -394 -383 -15 -50 -16 -391 -16
-3891 0 -3500 1 -3841 16 -3891 46 -153 153 -281 290 -347 l79 -37 3018 -3
3017 -2 0 2055 0 2055 800 0 800 0 0 1978 c0 1360 -3 1997 -11 2038 -17 96
-79 212 -151 284 -69 68 -183 130 -276 149 -38 8 -1072 11 -3585 10 -3053 0
-3539 -2 -3587 -15z m5070 -558 c0 -2 47 -498 105 -1102 58 -605 177 -1853
265 -2774 88 -921 161 -1690 164 -1707 l5 -33 -533 0 -533 0 -6 53 c-3 28 -20
223 -37 432 -17 209 -33 390 -36 403 l-4 22 -340 0 c-265 0 -340 -3 -341 -12
0 -7 -15 -211 -32 -453 l-32 -440 -547 -3 -547 -2 5 32 c4 30 246 2533 449
4663 48 495 88 906 90 913 4 9 203 12 955 12 522 0 950 -2 950 -4z"/>
<path d="M4732 8668 c-57 -777 -105 -1423 -108 -1435 l-4 -23 260 0 261 0 -6
48 c-3 26 -37 409 -76 852 -38 443 -92 1061 -119 1373 -28 313 -50 575 -50
583 0 9 -10 14 -28 14 l-27 0 -103 -1412z"/>
<path d="M7030 3966 l0 -2926 575 0 575 0 0 1155 0 1155 218 0 c464 0 650 29
858 131 284 139 453 412 549 885 37 179 55 369 62 644 18 765 -138 1312 -460
1606 -141 129 -321 206 -582 251 -75 13 -230 17 -942 20 l-853 5 0 -2926z
m1405 1840 c133 -35 198 -110 238 -277 47 -192 50 -633 6 -824 -27 -112 -93
-206 -173 -244 -55 -27 -179 -51 -262 -51 l-64 0 0 705 0 705 103 0 c56 0 125
-6 152 -14z"/>
</g>
</svg>
